HIERARCHY
ROOT Hips
{
	OFFSET 0.00 0.00 0.00
	CHANNELS 6 Xposition Yposition Zposition Xrotation Yrotation Zrotation
	JOINT Spine
	{
		OFFSET 0.00000 1.66264 2.49395
		CHANNELS 3 Xrotation Yrotation Zrotation
		JOINT Spine1
		{
			OFFSET 0.00000 0.57743 3.27475
			CHANNELS 3 Xrotation Yrotation Zrotation
			JOINT Spine2
			{
				OFFSET 0.00000 0.28982 3.31262
				CHANNELS 3 Xrotation Yrotation Zrotation
				JOINT Spine3
				{
					OFFSET 0.00000 0.00000 3.32527
					CHANNELS 3 Xrotation Yrotation Zrotation
					JOINT Neck
					{
						OFFSET 0.00000 -1.24697 8.72884
						CHANNELS 3 Xrotation Yrotation Zrotation
						JOINT Head
						{
							OFFSET 0.00000 -0.79396 4.50279
							CHANNELS 3 Xrotation Yrotation Zrotation
							End Site
							{
								OFFSET 0.00000 0.00001 5.38279
							}
						}
					}
					JOINT RightShoulder
					{
						OFFSET -1.14808 -1.91346 6.19963
						CHANNELS 3 Xrotation Yrotation Zrotation
						JOINT RightArm
						{
							OFFSET -5.70212 0.00000 0.00000
							CHANNELS 3 Xrotation Yrotation Zrotation
							JOINT RightForeArm
							{
								OFFSET -10.82477 0.00000 0.00000
								CHANNELS 3 Xrotation Yrotation Zrotation
								JOINT RightHand
								{
									OFFSET -10.02856 0.00000 0.00000
									CHANNELS 3 Xrotation Yrotation Zrotation
									JOINT RightHandEnd
									{
										OFFSET -2.68345 0.00000 0.00000
										CHANNELS 3 Xrotation Yrotation Zrotation
										End Site
										{
											OFFSET -2.68345 0.00000 0.00000
										}
									}
									JOINT RightHandThumb1
									{
										OFFSET -1.07338 -1.78897 -0.71559
										CHANNELS 3 Yrotation Xrotation Zrotation
										End Site
										{
											OFFSET -2.59202 -0.69453 0.00000
										}
									}
								}
							}
						}
					}
					JOINT LeftShoulder
					{
						OFFSET 1.14808 -1.91346 6.19963
						CHANNELS 3 Xrotation Yrotation Zrotation
						JOINT LeftArm
						{
							OFFSET 5.70212 0.00000 0.00000
							CHANNELS 3 Xrotation Yrotation Zrotation
							JOINT LeftForeArm
							{
								OFFSET 10.82477 0.00000 0.00000
								CHANNELS 3 Xrotation Yrotation Zrotation
								JOINT LeftHand
								{
									OFFSET 10.02856 0.00000 0.00000
									CHANNELS 3 Xrotation Yrotation Zrotation
									JOINT LeftHandEnd
									{
										OFFSET 2.68345 0.00000 0.00000
										CHANNELS 3 Xrotation Yrotation Zrotation
										End Site
										{
											OFFSET 2.68345 0.00000 0.00000
										}
									}
									JOINT LeftHandThumb1
									{
										OFFSET 1.07338 -1.78897 -0.71559
										CHANNELS 3 Yrotation Xrotation Zrotation
										End Site
										{
											OFFSET 2.59202 -0.69453 0.00000
										}
									}
								}
							}
						}
					}
				}
			}
		}
	}
	JOINT RightUpLeg
	{
		OFFSET -3.40597 0.00000 -0.99500
		CHANNELS 3 Xrotation Yrotation Zrotation
		JOINT RightLeg
		{
			OFFSET 0.00001 0.00000 -17.05191
			CHANNELS 3 Xrotation Yrotation Zrotation
			JOINT RightFoot
			{
				OFFSET 0.00001 0.00000 -15.93260
				CHANNELS 3 Xrotation Yrotation Zrotation
				JOINT RightToeBase
				{
					OFFSET 0.00000 -4.98016 -1.81263
					CHANNELS 3 Xrotation Yrotation Zrotation
					End Site
					{
						OFFSET 0.00000 -2.75539 -0.00000
					}
				}
			}
		}
	}
	JOINT LeftUpLeg
	{
		OFFSET 3.40597 0.00000 -0.99500
		CHANNELS 3 Xrotation Yrotation Zrotation
		JOINT LeftLeg
		{
			OFFSET 0.00001 0.00000 -17.05191
			CHANNELS 3 Xrotation Yrotation Zrotation
			JOINT LeftFoot
			{
				OFFSET 0.00001 0.00000 -15.93260
				CHANNELS 3 Xrotation Yrotation Zrotation
				JOINT LeftToeBase
				{
					OFFSET 0.00000 -4.98016 -1.81263
					CHANNELS 3 Xrotation Yrotation Zrotation
					End Site
					{
						OFFSET 0.00000 -2.75539 -0.00000
					}
				}
			}
		}
	}
}
MOTION
Frames: 7
Frame Time: 0.008342
 8.9317 -119.8090 35.0200 -2.4380 0.7425 -179.1133 -2.9066 1.2819 -0.2082 -1.5152 0.1341 -0.0271 -1.2065 -0.6341 -0.6049 -0.2108 0.2798 -0.1137 3.4963 -0.7330 -5.7896 -1.4432 -1.8309 -9.3298 -2.3288 14.6051 0.8966 -16.7781 -15.6164 -5.3388 0.0000 0.0000 16.1771 -10.2305 21.5932 3.8624 -0.0000 0.0000 -0.0000 0.0000 -0.0000 -0.0000 1.2466 -15.0099 0.2684 -8.5252 15.3186 -7.6525 -0.0000 -0.0000 -13.4452 -13.5052 -26.6124 -3.3281 0.0000 0.0000 0.0000 0.0000 -0.0000 -0.0000 -4.0361 0.9907 -35.3343 2.2813 0.0000 0.0000 -8.4321 0.2650 1.4042 4.1743 0.0000 0.0000 -0.2056 1.9549 26.2264 -3.6309 0.0000 -0.0000 -4.0594 12.1473 14.4970 -1.1244 0.0000 -0.0000
 8.9311 -119.8066 35.0199 -2.4388 0.7419 -179.1179 -2.9113 1.2798 -0.2078 -1.5155 0.1389 -0.0260 -1.2087 -0.6371 -0.6087 -0.2139 0.2800 -0.1142 3.4986 -0.7361 -5.7823 -1.4396 -1.8284 -9.3273 -2.3323 14.5939 0.8764 -16.7660 -15.6208 -5.2994 0.0000 0.0000 16.1655 -10.2309 21.6160 3.8374 0.0000 0.0000 0.0000 -0.0000 -0.0000 0.0000 1.2480 -15.0030 0.2796 -8.5176 15.3156 -7.6575 -0.0000 -0.0000 -13.4427 -13.4908 -26.6036 -3.3173 0.0000 0.0000 0.0000 -0.0000 0.0000 -0.0000 -4.0344 0.9910 -35.3325 2.2833 0.0000 0.0000 -8.4362 0.2637 1.4056 4.1733 0.0000 0.0000 -0.2031 1.9547 26.2186 -3.6287 0.0000 -0.0000 -4.0658 12.1382 14.5077 -1.1395 0.0000 -0.0000
 8.9303 -119.8030 35.0199 -2.4330 0.7395 -179.1239 -2.9123 1.2719 -0.2073 -1.5120 0.1522 -0.0239 -1.2161 -0.6470 -0.6110 -0.2147 0.2833 -0.1147 3.4992 -0.7414 -5.7756 -1.4349 -1.8242 -9.3230 -2.3222 14.5816 0.8326 -16.7529 -15.6321 -5.2294 0.0000 0.0000 16.1379 -10.2429 21.6488 3.8193 -0.0000 -0.0000 -0.0000 0.0000 -0.0000 -0.0000 1.2529 -15.0007 0.2952 -8.5114 15.3197 -7.6674 -0.0000 -0.0000 -13.4376 -13.4724 -26.5921 -3.3057 0.0000 0.0000 0.0000 -0.0000 0.0000 0.0000 -4.0230 0.9886 -35.3324 2.2823 0.0000 0.0000 -8.4393 0.2618 1.4094 4.1697 0.0000 0.0000 -0.1905 1.9536 26.2138 -3.6297 0.0000 -0.0000 -4.0723 12.1283 14.5165 -1.1576 0.0000 -0.0000
 8.9294 -119.7992 35.0198 -2.4342 0.7389 -179.1307 -2.9179 1.2729 -0.2074 -1.5182 0.1500 -0.0239 -1.2159 -0.6458 -0.6108 -0.2181 0.2831 -0.1176 3.5025 -0.7447 -5.7631 -1.4296 -1.8212 -9.3166 -2.3312 14.5660 0.8182 -16.7265 -15.6326 -5.1940 0.0000 0.0000 16.1258 -10.2535 21.6801 3.7984 -0.0000 -0.0000 -0.0000 -0.0000 -0.0000 0.0000 1.2551 -14.9888 0.3127 -8.4953 15.3139 -7.6784 -0.0000 -0.0000 -13.4318 -13.4537 -26.5744 -3.2915 -0.0000 0.0000 0.0000 0.0000 -0.0000 0.0000 -4.0202 0.9891 -35.3268 2.2845 0.0000 0.0000 -8.4442 0.2644 1.4088 4.1639 0.0000 0.0000 -0.1872 1.9535 26.2046 -3.6254 0.0000 -0.0000 -4.0825 12.1175 14.5309 -1.1776 0.0000 -0.0000
 8.9285 -119.7937 35.0198 -2.4191 0.7354 -179.1388 -2.9121 1.2709 -0.2071 -1.5181 0.1450 -0.0267 -1.2211 -0.6423 -0.6035 -0.2190 0.2846 -0.1213 3.5039 -0.7510 -5.7518 -1.4252 -1.8156 -9.3068 -2.3231 14.5496 0.7777 -16.6987 -15.6399 -5.1257 0.0000 0.0000 16.0943 -10.2774 21.7205 3.7894 0.0000 -0.0000 0.0000 0.0000 0.0000 0.0000 1.2615 -14.9836 0.3352 -8.4777 15.3159 -7.6990 -0.0000 -0.0000 -13.4206 -13.4367 -26.5534 -3.2803 0.0000 -0.0000 0.0000 -0.0000 -0.0000 -0.0000 -3.9953 0.9845 -35.3218 2.2800 0.0000 0.0000 -8.4464 0.2653 1.4093 4.1567 0.0000 0.0000 -0.1618 1.9512 26.1948 -3.6264 0.0000 -0.0000 -4.0937 12.1082 14.5470 -1.1981 0.0000 -0.0000
 8.9272 -119.7890 35.0198 -2.4210 0.7348 -179.1480 -2.9220 1.2703 -0.2068 -1.5256 0.1456 -0.0248 -1.2189 -0.6432 -0.6034 -0.2208 0.2843 -0.1224 3.5039 -0.7532 -5.7350 -1.4175 -1.8122 -9.2945 -2.3289 14.5325 0.7600 -16.6628 -15.6383 -5.0865 0.0000 0.0000 16.0746 -10.3074 21.7611 3.7849 -0.0000 0.0000 -0.0000 -0.0000 -0.0000 -0.0000 1.2643 -14.9676 0.3574 -8.4551 15.3094 -7.7184 -0.0000 -0.0000 -13.4104 -13.4133 -26.5308 -3.2639 -0.0000 -0.0000 -0.0000 -0.0000 0.0000 -0.0000 -3.9922 0.9853 -35.3125 2.2822 0.0000 0.0000 -8.4514 0.2718 1.4076 4.1483 0.0000 0.0000 -0.1579 1.9513 26.1871 -3.6209 0.0000 -0.0000 -4.1065 12.0990 14.5629 -1.2178 0.0000 -0.0000
 8.9260 -119.7839 35.0198 -2.4216 0.7335 -179.1583 -2.9322 1.2687 -0.2059 -1.5308 0.1456 -0.0238 -1.2176 -0.6437 -0.5993 -0.2222 0.2840 -0.1232 3.5020 -0.7550 -5.7171 -1.4101 -1.8090 -9.2792 -2.3306 14.5152 0.7362 -16.6261 -15.6366 -5.0435 0.0000 0.0000 16.0504 -10.3380 21.8031 3.7856 -0.0000 0.0000 0.0000 -0.0000 0.0000 0.0000 1.2687 -14.9522 0.3809 -8.4310 15.3059 -7.7427 -0.0000 -0.0000 -13.3974 -13.3921 -26.5059 -3.2514 -0.0000 -0.0000 0.0000 0.0000 -0.0000 -0.0000 -3.9870 0.9849 -35.2998 2.2833 0.0000 0.0000 -8.4556 0.2800 1.4036 4.1403 0.0000 0.0000 -0.1524 1.9505 26.1800 -3.6147 0.0000 -0.0000 -4.1209 12.0908 14.5796 -1.2362 0.0000 -0.0000
